<svg xmlns="http://www.w3.org/2000/svg" width="22.125" height="22.125"><path fill="#FFF" d="M15.656 22.125H6.469A6.476 6.476 0 010 15.656V6.469A6.476 6.476 0 016.469 0h9.188a6.476 6.476 0 016.469 6.469v9.188a6.478 6.478 0 01-6.47 6.468zM6.469 2.063a4.411 4.411 0 00-4.406 4.406v9.188a4.411 4.411 0 004.406 4.406h9.188a4.411 4.411 0 004.406-4.406V6.469a4.411 4.411 0 00-4.406-4.406H6.469z"/><circle cx="16.975" cy="5.162" r="1.379" fill="#FFF"/><path fill="#FFF" d="M11.063 16.781a5.726 5.726 0 01-5.719-5.719 5.725 5.725 0 015.719-5.719 5.725 5.725 0 015.719 5.719 5.726 5.726 0 01-5.719 5.719zm0-9.375a3.66 3.66 0 00-3.656 3.656c0 2.016 1.641 3.656 3.656 3.656s3.656-1.641 3.656-3.656a3.66 3.66 0 00-3.656-3.656z"/></svg>